#ExMLDNet .OBJ Export 2.0
#Program Version 1.0.1.0 RC7 22 March 2008
#2008-02-28 Steven Pettit

mtllib ItemModel_028.mtl

# 77 Total Vertices
v 0.000000 -0.293656 -5.705974
v 0.305892 0.146829 -5.705968
v 0.305894 0.146828 2.212492
v -0.305891 0.146828 2.212489
v -0.305892 0.146829 -5.705972
v 0.000002 -0.293656 2.212488
v -0.320762 0.238418 13.456350
v -0.720736 0.406761 11.827740
v -0.320762 -0.346811 13.456070
v -0.720736 -0.507452 11.827380
v -0.310556 0.069598 10.943580
v -0.310556 -0.138805 10.943580
v -0.662566 0.478270 10.112870
v -0.662566 -0.671274 10.112870
v -0.259007 0.178540 9.357071
v -0.000007 -0.357084 9.357071
v 0.320730 -0.346811 13.456070
v 0.720709 -0.507452 11.827380
v 0.310529 -0.138805 10.943580
v 0.662549 -0.671274 10.112870
v 0.258996 0.178541 7.810267
v 0.258993 0.178540 9.357069
v -0.000004 -0.357084 7.810267
v -0.259004 0.178541 7.810267
v 0.310529 0.069598 10.943580
v 0.662549 0.478270 10.112870
v 0.720709 0.406761 11.827740
v 0.320730 0.238418 13.456350
v 0.842452 -0.038423 11.620690
v 1.401621 0.389099 10.952930
v -0.009429 -0.038424 10.984250
v 0.800686 -0.038424 10.446380
v 1.401621 -0.465947 10.952930
v 1.399121 -0.038424 9.549463
v 1.934290 -0.038424 10.562470
v 3.607729 -0.038424 11.697580
v 2.884544 0.207432 11.808030
v 4.049798 -0.038423 13.317300
v 2.884544 -0.284279 11.808030
v 2.884544 0.207432 11.808030
v 1.401621 0.389099 10.952930
v 2.289598 -0.038423 12.095410
v 0.842452 -0.038423 11.620690
v 1.401621 -0.465947 10.952930
v 2.884544 -0.284279 11.808030
v 4.049798 -0.038423 13.317300
v 0.175802 0.058091 0.709024
v 0.175795 0.058091 8.463860
v 0.000002 -0.195061 0.709020
v -0.000006 -0.195061 8.463860
v -0.175798 0.058091 0.709021
v -0.175806 0.058091 8.463860
v 0.360372 -0.387926 13.335230
v 0.360372 0.260429 13.335230
v -0.000012 -0.064936 15.670980
v -0.360405 0.260429 13.335230
v -0.360405 -0.387926 13.335230
v -0.002536 -0.480581 12.604840
v -0.002536 0.369981 12.604840
v -0.842445 -0.038423 11.620690
v 0.009435 -0.038424 10.984250
v -1.401614 0.389099 10.952930
v -0.800679 -0.038424 10.446380
v -1.401614 -0.465947 10.952930
v -1.399114 -0.038424 9.549461
v -1.934283 -0.038423 10.562470
v -3.607722 -0.038424 11.697580
v -2.884537 0.207432 11.808030
v -4.049792 -0.038423 13.317300
v -2.884537 -0.284278 11.808030
v -1.401613 0.389099 10.952930
v -2.884536 0.207432 11.808030
v -2.289589 -0.038423 12.095410
v -4.049790 -0.038423 13.317300
v -2.884536 -0.284278 11.808030
v -1.401613 -0.465947 10.952930
v -0.842444 -0.038423 11.620690

# 61 Total UV Coords.
vt 0.9921569 0.9529412
vt 0.9921569 0.9921569
vt 0.003921569 0.9921569
vt 0.007843138 0.9137255
vt 0.9921569 0.9137255
vt 0.003921569 0.9529412
vt 0.5529412 0.9137255
vt 0.5372549 0.6941177
vt 0.6470588 0.9137255
vt 0.6627451 0.6941177
vt 0.5686275 0.5686275
vt 0.6313726 0.5686275
vt 0.5529412 0.3803921
vt 0.6627451 0.3803921
vt 0.5843138 0.2549019
vt 0.6313726 0.2549019
vt 0.8196079 0.9137255
vt 0.7098039 0.9137255
vt 0.8666667 0.6941177
vt 0.8196079 0.5686275
vt 0.7254902 0.5686275
vt 0.8901961 0.3803921
vt 0.7647059 0.2549019
vt 0.8117647 0.003921568
vt 0.8117647 0.2549019
vt 0.7647059 0.003921568
vt 0.7176471 0.2549019
vt 0.7176471 0.003921568
vt 0.9921569 0.3803921
vt 0.9607843 0.2549019
vt 0.9137255 0.2549019
vt 1 0.6941177
vt 0.8980392 0.9137255
vt 0.8823529 0.6941177
vt 0.9764706 0.5686275
vt 0.9137255 0.5686275
vt 0.8823529 0.3803921
vt 0.145098 0.6470588
vt 0.3176471 0.6784314
vt 0.1294118 0.8823529
vt 0.3176471 0.8352941
vt 0.5058824 0.8901961
vt 0.4588235 0.6705883
vt 0.5568628 0.3098039
vt 0.427451 0.3490196
vt 0.3803922 0.003921568
vt 0.2862745 0.4117647
vt 0 0
vt 0.1176471 0.2431372
vt 0.1176471 0.8901961
vt 0.06666667 0.2431372
vt 0.06666667 0.8901961
vt 0.01568628 0.2431372
vt 0.01568628 0.8901961
vt 0.3137255 0.003921568
vt 0.1607843 0.003921568
vt 0.2352941 0.2901961
vt 0.09019608 0
vt 0.1686275 0.1529412
vt 0.01568628 0.1529412
vt 0.1058824 0.4666666

# 77 Total Normals.
vn 0.000001 -0.827900 -0.560875
vn 0.738900 0.386471 -0.551967
vn 0.738896 0.386468 0.551974
vn -0.738899 0.386468 0.551970
vn -0.738897 0.386469 -0.551972
vn 0.000000 -0.827905 0.560869
vn -0.650672 0.722257 0.234458
vn -0.721165 0.681139 -0.126376
vn -0.650184 -0.723790 0.231059
vn -0.718627 -0.682145 -0.135106
vn -0.704860 0.708910 0.024878
vn -0.730921 -0.680212 0.055375
vn -0.711760 0.702414 -0.003535
vn -0.701396 -0.712770 -0.001769
vn -0.697842 0.552772 -0.455479
vn -0.000001 -0.799930 -0.600093
vn 0.650183 -0.723791 0.231061
vn 0.718628 -0.682144 -0.135105
vn 0.730919 -0.680214 0.055380
vn 0.701397 -0.712769 -0.001766
vn 0.703404 0.441193 -0.557290
vn 0.697843 0.552772 -0.455475
vn 0.000001 -0.835122 -0.550065
vn -0.703403 0.441193 -0.557291
vn 0.704858 0.708912 0.024883
vn 0.711760 0.702414 -0.003532
vn 0.721166 0.681138 -0.126375
vn 0.650671 0.722258 0.234460
vn -0.598508 0.000001 0.801117
vn 0.016091 0.969346 -0.245174
vn -0.999912 0.000000 -0.013252
vn -0.698250 0.000000 -0.715854
vn 0.016091 -0.969346 -0.245173
vn 0.035341 0.000000 -0.999375
vn 0.734390 0.000000 -0.678728
vn 0.870234 -0.000001 -0.492639
vn 0.283990 0.933572 -0.218615
vn 0.964714 0.000000 -0.263299
vn 0.283990 -0.933573 -0.218614
vn -0.195983 0.907771 0.370868
vn -0.146539 0.883676 0.444571
vn -0.390953 0.000001 0.920411
vn -0.311700 0.000000 0.950181
vn -0.146540 -0.883675 0.444573
vn -0.195984 -0.907770 0.370869
vn -0.570247 -0.000001 0.821473
vn 0.886115 0.463465 0.000001
vn 0.886114 0.463467 0.000001
vn -0.000004 -1.000000 0.000000
vn -0.000001 -1.000000 0.000000
vn -0.886117 0.463462 -0.000001
vn -0.886114 0.463467 -0.000001
vn 0.483146 -0.855012 0.188480
vn 0.482390 0.853443 0.197321
vn 0.000002 -0.000497 1.000000
vn -0.481601 0.853898 0.197277
vn -0.482354 -0.855474 0.188409
vn 0.000000 -0.992050 0.125847
vn 0.000000 0.988938 0.148331
vn 0.598508 0.000001 0.801117
vn 0.999912 0.000000 -0.013252
vn -0.016091 0.969346 -0.245174
vn 0.698250 0.000000 -0.715854
vn -0.016092 -0.969346 -0.245173
vn -0.035341 0.000000 -0.999375
vn -0.734390 0.000001 -0.678728
vn -0.870234 0.000000 -0.492639
vn -0.283990 0.933572 -0.218615
vn -0.964714 0.000001 -0.263299
vn -0.283990 -0.933573 -0.218614
vn 0.146540 0.883676 0.444572
vn 0.195983 0.907771 0.370868
vn 0.390953 0.000001 0.920411
vn 0.570247 -0.000001 0.821473
vn 0.195984 -0.907770 0.370869
vn 0.146540 -0.883675 0.444573
vn 0.311700 0.000000 0.950181

# 110 Total Faces
# 10 Total Groups

g ItemModel_0281
usemtl ItemModel_028-1
f 1/1/1 2/2/2 3/3/3
f 4/4/4 5/5/5 6/6/6
f 6/6/6 5/5/5 1/1/1
f 1/1/1 5/5/5 2/2/2
f 5/5/5 4/4/4 2/2/2
f 2/2/2 4/4/4 3/3/3
f 4/4/4 6/6/6 3/3/3
f 3/3/3 6/6/6 1/1/1

g ItemModel_0282
usemtl ItemModel_028-2
f 7/7/7 8/8/8 9/9/9
f 9/9/9 8/8/8 10/10/10
f 8/8/8 11/11/11 10/10/10
f 10/10/10 11/11/11 12/12/12
f 11/11/11 13/13/13 12/12/12
f 12/12/12 13/13/13 14/14/14
f 13/13/13 15/15/15 14/14/14
f 14/14/14 15/15/15 16/16/16
f 17/17/17 9/18/9 18/19/18
f 9/18/9 10/10/10 18/19/18
f 18/19/18 10/10/10 19/20/19
f 10/10/10 12/21/12 19/20/19
f 19/20/19 12/21/12 20/22/20
f 12/21/12 14/14/14 20/22/20
f 20/22/20 14/14/14 16/23/16
f 21/24/21 22/25/22 23/26/23
f 16/23/16 15/27/15 24/28/24
f 20/29/20 16/30/16 22/31/22
f 25/20/25 26/22/26 13/14/13
f 26/22/26 22/25/22 13/14/13
f 13/14/13 22/25/22 15/27/15
f 22/25/22 21/24/21 15/27/15
f 15/27/15 21/24/21 24/28/24
f 21/24/21 23/26/23 24/28/24
f 24/28/24 23/26/23 16/23/16
f 23/26/23 22/25/22 16/23/16
f 13/14/13 11/21/11 25/20/25
f 25/20/25 11/21/11 27/19/27
f 11/21/11 8/10/8 27/19/27
f 27/19/27 8/10/8 28/17/28
f 8/10/8 7/18/7 28/17/28
f 17/5/17 18/32/18 28/33/28
f 28/33/28 18/32/18 27/34/27
f 18/32/18 19/35/19 27/34/27
f 27/34/27 19/35/19 25/36/25
f 19/35/19 20/29/20 25/36/25
f 25/36/25 20/29/20 26/37/26
f 20/29/20 22/31/22 26/37/26

g ItemModel_0283
usemtl ItemModel_028-3
f 29/38/29 30/39/30 31/40/31
f 30/39/30 32/41/32 31/40/31
f 31/40/31 32/41/32 33/39/33
f 32/41/32 34/42/34 33/39/33
f 33/39/33 34/42/34 35/43/35
f 34/42/34 30/39/30 35/43/35
f 35/43/35 30/39/30 36/44/36
f 30/39/30 37/45/37 36/44/36
f 36/44/36 37/45/37 38/46/38
f 33/39/33 29/38/29 31/40/31
f 30/39/30 34/42/34 32/41/32
f 35/43/35 36/44/36 33/39/33
f 33/39/33 36/44/36 39/45/39
f 36/44/36 38/46/38 39/45/39

g ItemModel_0284
usemtl ItemModel_028-4
f 40/45/40 41/39/41 42/47/42
f 41/39/41 43/38/43 42/47/42
f 42/47/42 43/38/43 44/39/44
f 44/39/44 45/45/45 42/47/42
f 45/45/45 46/46/46 42/47/42
f 42/47/42 46/46/46 40/45/40

g ItemModel_0285
usemtl ItemModel_028-5
f 40/48/40 41/48/41 42/48/42
f 41/48/41 43/48/43 42/48/42
f 42/48/42 43/48/43 44/48/44
f 44/48/44 45/48/45 42/48/42
f 45/48/45 46/48/46 42/48/42
f 42/48/42 46/48/46 40/48/40

g ItemModel_0286
usemtl ItemModel_028-6
f 47/49/47 48/50/48 49/51/49
f 48/50/48 50/52/50 49/51/49
f 49/51/49 50/52/50 51/53/51
f 50/52/50 52/54/52 51/53/51
f 51/53/51 52/54/52 47/49/47
f 52/54/52 48/50/48 47/49/47
f 53/55/53 54/56/54 55/57/55
f 56/56/56 57/55/57 55/57/55

g ItemModel_0287
usemtl ItemModel_028-7
f 58/58/58 53/59/53 57/60/57
f 53/59/53 55/61/55 57/60/57
f 55/61/55 54/59/54 56/60/56
f 54/59/54 59/58/59 56/60/56

g ItemModel_0288
usemtl ItemModel_028-3
f 60/38/60 61/40/61 62/39/62
f 62/39/62 61/40/61 63/41/63
f 61/40/61 64/39/64 63/41/63
f 63/41/63 64/39/64 65/42/65
f 64/39/64 66/43/66 65/42/65
f 65/42/65 66/43/66 62/39/62
f 66/43/66 67/44/67 62/39/62
f 62/39/62 67/44/67 68/45/68
f 67/44/67 69/46/69 68/45/68
f 61/40/61 60/38/60 64/39/64
f 63/41/63 65/42/65 62/39/62
f 69/46/69 67/44/67 70/45/70
f 70/45/70 67/44/67 64/39/64
f 67/44/67 66/43/66 64/39/64

g ItemModel_0289
usemtl ItemModel_028-4
f 71/39/71 72/45/72 73/47/73
f 72/45/72 74/46/74 73/47/73
f 73/47/73 74/46/74 75/45/75
f 75/45/75 76/39/76 73/47/73
f 76/39/76 77/38/77 73/47/73
f 73/47/73 77/38/77 71/39/71

g ItemModel_02810
usemtl ItemModel_028-5
f 71/48/71 72/48/72 73/48/73
f 72/48/72 74/48/74 73/48/73
f 73/48/73 74/48/74 75/48/75
f 75/48/75 76/48/76 73/48/73
f 76/48/76 77/48/77 73/48/73
f 73/48/73 77/48/77 71/48/71
