#ExMLDNet .OBJ Export 2.0
#Program Version 1.0.1.0 RC7 22 March 2008
#2008-02-28 Steven Pettit

#mtllib box.mtl

# 8 Total Vertices
v -1.987873 -0.000006 2.034786
v -1.987873 -2.034806 0.000006
v 1.987873 -0.000006 2.034786
v 1.987873 -2.034806 0.000006
v 1.987873 0.000006 -2.034786
v -1.987873 0.000006 -2.034786
v -1.987873 2.034806 -0.000006
v 1.987873 2.034806 -0.000006

# 6 Total UV Coords.
vt 0 0.4862745
vt 0 1
vt 1 0.4862745
vt 1 1
vt 0 0
vt 1 0

# 8 Total Normals.
vn -0.577351 0.000000 0.816496
vn -0.577350 -0.816497 0.000000
vn 0.577351 0.000000 0.816496
vn 0.577350 -0.816497 0.000000
vn 0.577351 0.000000 -0.816496
vn -0.577351 0.000000 -0.816496
vn -0.577350 0.816497 0.000000
vn 0.577350 0.816497 0.000000

# 12 Total Faces
# 1 Total Groups

g box1
usemtl box-1
f 1/1/1 2/2/2 3/3/3
f 2/2/2 4/4/4 3/3/3
f 3/3/3 4/4/4 5/3/5
f 4/4/4 2/2/2 5/3/5
f 5/3/5 2/2/2 6/1/6
f 2/2/2 1/1/1 6/1/6
f 6/1/6 1/1/1 7/5/7
f 1/1/1 3/3/3 7/5/7
f 7/5/7 3/3/3 8/6/8
f 3/3/3 5/3/5 8/6/8
f 8/6/8 5/3/5 7/5/7
f 5/3/5 6/1/6 7/5/7
